<svg xmlns="http://www.w3.org/2000/svg" width="39" height="39" viewBox="0 0 39 39">
  <g id="Group_2408" data-name="Group 2408" transform="translate(-284 -1054.56)">
    <rect id="Rectangle_593" data-name="Rectangle 593" width="39" height="39" transform="translate(284 1054.56)" fill="#ffb236"/>
    <g id="Group_2408-2" data-name="Group 2408" transform="translate(288.68 1057.68)">
      <path id="Path_1516" data-name="Path 1516" d="M300,1071.474v9.983c0,7.451,4.355,12.346,13.257,14.791,8.906-2.51,13.263-7.407,13.263-14.791v-9.983l-13.26-4.788Zm11.214,13.883-4.974-4.379,1.095-1.139,3.862,3.4,7.97-7.242,1.113,1.122Z" transform="translate(-298.44 -1065.077)" fill="none"/>
      <path id="Path_1517" data-name="Path 1517" d="M311.085,1062.606a.779.779,0,0,0-.53,0l-14.04,5.07a.78.78,0,0,0-.515.734v10.53c0,8.269,4.938,13.756,14.618,16.353a.778.778,0,0,0,.409,0c9.676-2.668,14.613-8.152,14.613-16.352v-10.53a.78.78,0,0,0-.515-.734Zm13,16.334c0,7.383-4.357,12.28-13.263,14.791-8.9-2.445-13.257-7.34-13.257-14.791v-9.983l13.26-4.788,13.26,4.788Z" transform="translate(-296 -1062.56)" fill="#fff"/>
      <path id="Path_1518" data-name="Path 1518" d="M320.956,1097.8l-3.862-3.4L316,1095.541l4.974,4.378,9.066-8.237-1.113-1.123Z" transform="translate(-308.2 -1079.64)" fill="#ffffff"/>
    </g>
  </g>
</svg>
